<svg xmlns="http://www.w3.org/2000/svg" xmlns:xlink="http://www.w3.org/1999/xlink"><symbol style="enable-background:new 0 0 512 512" id="svg-basketball" viewBox="0 0 512 512"><title>basketball</title><defs><circle id="a" cx="256" cy="256" r="200"/></defs><use xmlns:xlink="http://www.w3.org/1999/xlink" xlink:href="#a" style="overflow:visible;fill:#ff6d00"/><clipPath id="b"><use xmlns:xlink="http://www.w3.org/1999/xlink" xlink:href="#a" style="overflow:visible"/></clipPath><g style="clip-path:url(#b)"><circle style="fill:none;stroke:#424242;stroke-width:8;stroke-miterlimit:10" cx="427.409" cy="256" r="132.087"/><circle style="fill:none;stroke:#424242;stroke-width:8;stroke-miterlimit:10" cx="85.409" cy="256" r="132.087"/><path style="fill:none;stroke:#424242;stroke-width:8;stroke-miterlimit:10" d="M256 61v390M64 256h385"/></g><path style="fill:#424242" d="M256 70c49.683 0 96.391 19.347 131.522 54.478S442 206.317 442 256s-19.347 96.391-54.478 131.522S305.683 442 256 442s-96.391-19.347-131.522-54.478S70 305.683 70 256s19.347-96.391 54.478-131.522S206.317 70 256 70m0-14C145.543 56 56 145.543 56 256s89.543 200 200 200 200-89.543 200-200S366.457 56 256 56z"/></symbol><use style="enable-background:new 0 0 512 512" xlink:href="#svg-basketball" width="512" height="512"/><view id="svg-basketball-coloured" viewBox="0 0 512 512"/><symbol style="enable-background:new 0 0 512 512" id="svg-cricket" viewBox="0 0 512 512"><title>cricket</title><defs><circle id="a" cx="256" cy="256" r="200"/></defs><use xmlns:xlink="http://www.w3.org/1999/xlink" xlink:href="#a" style="overflow:visible;fill:#e53935"/><clipPath id="b"><use xmlns:xlink="http://www.w3.org/1999/xlink" xlink:href="#a" style="overflow:visible"/></clipPath><g style="clip-path:url(#b)"><path style="fill:none;stroke:#ffecb3;stroke-width:5;stroke-miterlimit:10" d="M293.5 64v11"/><path style="fill:none;stroke:#ffecb3;stroke-width:5;stroke-miterlimit:10;stroke-dasharray:23,12" d="M293.5 87v344"/><path style="fill:none;stroke:#ffecb3;stroke-width:5;stroke-miterlimit:10" d="M293.5 437v11"/></g><g style="clip-path:url(#b)"><path style="fill:none;stroke:#ffecb3;stroke-width:5;stroke-miterlimit:10" d="M307.5 64v11"/><path style="fill:none;stroke:#ffecb3;stroke-width:5;stroke-miterlimit:10;stroke-dasharray:23,12" d="M307.5 87v344"/><path style="fill:none;stroke:#ffecb3;stroke-width:5;stroke-miterlimit:10" d="M307.5 437v11"/></g><g style="clip-path:url(#b)"><path style="fill:none;stroke:#ffecb3;stroke-width:5;stroke-miterlimit:10" d="M204.5 64v11"/><path style="fill:none;stroke:#ffecb3;stroke-width:5;stroke-miterlimit:10;stroke-dasharray:23,12" d="M204.5 87v344"/><path style="fill:none;stroke:#ffecb3;stroke-width:5;stroke-miterlimit:10" d="M204.5 437v11"/></g><g style="clip-path:url(#b)"><path style="fill:none;stroke:#ffecb3;stroke-width:5;stroke-miterlimit:10" d="M218.5 64v11"/><path style="fill:none;stroke:#ffecb3;stroke-width:5;stroke-miterlimit:10;stroke-dasharray:23,12" d="M218.5 87v344"/><path style="fill:none;stroke:#ffecb3;stroke-width:5;stroke-miterlimit:10" d="M218.5 437v11"/></g><g style="clip-path:url(#b)"><path style="fill:#c62828" d="M241.255 49.366h29.49V462.86h-29.49z"/><path style="fill:none;stroke:#ffecb3;stroke-width:5;stroke-miterlimit:10" d="M270.745 451.445v11.415H259.33m-6.66 0h-11.415v-11.415"/><path style="fill:none;stroke:#ffecb3;stroke-width:5;stroke-miterlimit:10;stroke-dasharray:22.2659,12.145" d="M241.255 439.3V66.853"/><path style="fill:none;stroke:#ffecb3;stroke-width:5;stroke-miterlimit:10" d="M241.255 60.78V49.366h11.415m6.66 0h11.415V60.78"/><path style="fill:none;stroke:#ffecb3;stroke-width:5;stroke-miterlimit:10;stroke-dasharray:22.2659,12.145" d="M270.745 72.925v372.448"/></g><path style="fill:#424242" d="M256 70c49.683 0 96.391 19.347 131.522 54.478S442 206.317 442 256s-19.347 96.391-54.478 131.522S305.683 442 256 442s-96.391-19.347-131.522-54.478S70 305.683 70 256s19.347-96.391 54.478-131.522S206.317 70 256 70m0-14C145.543 56 56 145.543 56 256s89.543 200 200 200 200-89.543 200-200S366.457 56 256 56z"/></symbol><use style="enable-background:new 0 0 512 512" xlink:href="#svg-cricket" y="512" width="512" height="512"/><view id="svg-cricket-coloured" viewBox="0 512 512 512"/><symbol style="enable-background:new 0 0 309.142 309.142" id="svg-facebook" viewBox="0 0 309.142 309.142"><title>facebook</title><path style="fill:#005cb9" d="M154.571 0C69.662 0 .83 68.831.83 153.741c0 38.283 13.997 73.295 37.147 100.207-6.953 19.986-19.807 37.209-36.479 49.581a104.195 104.195 0 0 0 33.757 5.613c20.214 0 39.082-5.751 55.067-15.698 19.551 9.007 41.312 14.039 64.249 14.039 84.909 0 153.741-68.833 153.741-153.742C308.313 68.831 239.48 0 154.571 0z"/><path style="fill:#fff" d="M131.495 240.044h36.112v-90.282h26.804l3.29-36.115h-28.7v-14.44c0-7.037 4.69-8.671 7.984-8.671h20.258V59.593l-27.895-.113c-30.963 0-38.002 23.075-38.002 37.849v16.318H113.44v36.115h18.056l-.001 90.282z"/></symbol><use style="enable-background:new 0 0 309.142 309.142" xlink:href="#svg-facebook" y="1024" width="309.142" height="309.142"/><view id="svg-facebook-coloured" viewBox="0 1024 309.142 309.142"/><symbol style="enable-background:new 0 0 512 512" id="svg-rugby-ball" viewBox="0 0 512 512"><title>rugby-ball</title><defs><path id="a" d="M464.249 226.619c14.722 16.785 14.722 41.977 0 58.762-32.863 37.468-102.068 97.463-208.297 97.463-105.942 0-175.06-59.671-208.03-97.159-14.949-16.998-14.949-42.372 0-59.37 32.97-37.488 102.088-97.159 208.03-97.159 106.229 0 175.434 59.995 208.297 97.463z"/></defs><use xmlns:xlink="http://www.w3.org/1999/xlink" xlink:href="#a" style="overflow:visible;fill:#d84315"/><clipPath id="b"><use xmlns:xlink="http://www.w3.org/1999/xlink" xlink:href="#a" style="overflow:visible"/></clipPath><path style="clip-path:url(#b);fill:#eee;stroke:#424242;stroke-width:5;stroke-miterlimit:10" d="M98.709 155.814h29.685v200.371H98.709zm304.897 0h29.685v200.371h-29.685z"/><path style="fill:#eee" d="M282.137 286c-4.15 0-7.137-4.426-7.137-8.161V269h-18v8.839c0 3.742-2.998 8.161-7.137 8.161h-2.392c-3.899 0-7.472-4.094-7.472-8.161V269h-18v7.644c0 4.623-3.813 8.385-8.5 8.385s-8.5-3.762-8.5-8.385V269h-18v7.644c0 4.78-3.439 8.385-8 8.385s-8-3.604-8-8.385v-38.675c0-4.78 3.439-8.385 8-8.385s8 3.604 8 8.385V247h18v-9.032c0-4.624 3.813-8.385 8.5-8.385s8.5 3.761 8.5 8.385V247h18v-10.228c0-3.806 3.36-6.772 7.472-6.772h2.392c4.003 0 7.137 2.77 7.137 6.772V247h18v-10.228c0-3.937 3.07-6.772 7.137-6.772h2.392c3.803 0 6.472 2.573 6.472 6.772V247h18v-9.032c0-4.624 3.813-8.385 8.5-8.385s8.5 3.761 8.5 8.385V247h18v-9.032c0-4.624 3.813-8.385 8.5-8.385s8.5 3.761 8.5 8.385v38.675c0 4.623-3.813 8.385-8.5 8.385s-8.5-3.762-8.5-8.385V269h-18v7.644c0 4.623-3.813 8.385-8.5 8.385s-8.5-3.762-8.5-8.385V269h-18v8.839c0 3.932-2.298 8.161-6.472 8.161h-2.392z"/><path style="fill:#424242" d="M352 232.083c3.25 0 6 2.635 6 5.885v38.676c0 3.25-2.75 5.885-6 5.885s-6-2.635-6-5.885V266h-23v10.644c0 3.25-2.75 5.885-6 5.885s-6-2.635-6-5.885V266h-23v11.839c0 2.59-.882 5.161-3.471 5.161h-2.392c-2.589 0-5.137-2.571-5.137-5.161V266h-23v11.839c0 2.59-1.547 5.161-4.137 5.161h-2.392c-2.59 0-5.472-2.571-5.472-5.161V266h-23v10.644c0 3.25-2.75 5.885-6 5.885s-6-2.635-6-5.885V266h-23v10.644c0 3.25-2.25 5.885-5.5 5.885s-5.5-2.635-5.5-5.885v-38.676c0-3.25 2.25-5.885 5.5-5.885s5.5 2.635 5.5 5.885V249h23v-11.032c0-3.25 2.75-5.885 6-5.885s6 2.635 6 5.885V249h23v-12.228c0-2.59 2.882-4.772 5.472-4.772h2.392c2.589 0 4.137 2.183 4.137 4.772V249h23v-12.228c0-2.59 2.547-4.772 5.137-4.772h2.392c2.589 0 3.471 2.183 3.471 4.772V249h23v-11.032c0-3.25 2.75-5.885 6-5.885s6 2.635 6 5.885V249h23v-11.032c0-3.25 2.75-5.885 6-5.885m0-5c-6.065 0-11 4.883-11 10.885V244h-13v-6.032c0-6.002-4.935-10.885-11-10.885s-11 4.883-11 10.885V244h-13v-7.228c0-5.606-3.256-9.772-8.471-9.772h-2.392c-5.377 0-10.137 4.522-10.137 9.772V244h-13v-7.228c0-5.339-3.797-9.772-9.137-9.772h-2.392c-5.562 0-10.472 4.522-10.472 9.772V244h-13v-6.032c0-6.002-4.935-10.885-11-10.885s-11 4.883-11 10.885V244h-13v-6.032c0-6.104-4.612-10.885-10.5-10.885s-10.5 4.781-10.5 10.885v38.676c0 6.104 4.612 10.885 10.5 10.885s10.5-4.781 10.5-10.885V271h13v5.644c0 6.002 4.935 10.885 11 10.885s11-4.883 11-10.885V271h13v6.839c0 5.449 5.193 10.161 10.472 10.161h2.392c5.696 0 9.137-5.132 9.137-10.161V271h13v6.839c0 5.547 4.942 10.161 10.137 10.161h2.392c5.049 0 8.471-4.225 8.471-10.161V271h13v5.644c0 6.002 4.935 10.885 11 10.885s11-4.883 11-10.885V271h13v5.644c0 6.002 4.935 10.885 11 10.885s11-4.883 11-10.885v-38.676c0-6.002-4.935-10.885-11-10.885z"/><path style="fill:#424242" d="M255.952 143.156c44.355 0 86.327 11.055 124.752 32.857 33.792 19.174 58.36 43.123 73.02 59.837 10.075 11.487 10.075 28.812 0 40.299-14.659 16.714-39.227 40.664-73.02 59.837-38.425 21.803-80.397 32.857-124.752 32.857-44.25 0-86.133-11.004-124.484-32.706-33.778-19.114-58.359-43.014-73.033-59.699-10.248-11.652-10.248-29.227 0-40.879 14.673-16.685 39.255-40.585 73.033-59.699 38.351-21.7 80.233-32.704 124.484-32.704m0-14c-105.942 0-175.06 59.671-208.03 97.159-14.949 16.998-14.949 42.372 0 59.37 32.97 37.488 102.088 97.159 208.03 97.159 106.229 0 175.435-59.995 208.297-97.463 14.722-16.785 14.722-41.977 0-58.762-32.863-37.469-102.068-97.463-208.297-97.463z"/></symbol><use style="enable-background:new 0 0 512 512" xlink:href="#svg-rugby-ball" y="1333.142" width="512" height="512"/><view id="svg-rugby-ball-coloured" viewBox="0 1333.142 512 512"/><symbol style="enable-background:new 0 0 512 512" id="svg-tennis" viewBox="0 0 512 512"><title>tennis</title><defs><circle id="a" cx="256" cy="256" r="200"/></defs><use xmlns:xlink="http://www.w3.org/1999/xlink" xlink:href="#a" style="overflow:visible;fill:#c6ff00"/><clipPath id="b"><use xmlns:xlink="http://www.w3.org/1999/xlink" xlink:href="#a" style="overflow:visible"/></clipPath><circle style="clip-path:url(#b);fill:#eee;stroke:#424242;stroke-width:5;stroke-miterlimit:10" cx="491" cy="256" r="172.049"/><path style="clip-path:url(#b);fill:#c6ff00;stroke:#424242;stroke-width:5;stroke-miterlimit:10" d="M493.029 405.035c-82.178 1.119-149.945-64.827-151.064-147.005-1.119-82.178 64.827-149.945 147.005-151.064 82.178-1.119 149.945 64.827 151.064 147.005 1.12 82.178-64.826 149.945-147.005 151.064z"/><circle style="clip-path:url(#b);fill:#eee;stroke:#424242;stroke-width:5;stroke-miterlimit:10" cx="21" cy="256" r="172.049"/><path style="clip-path:url(#b);fill:#c6ff00;stroke:#424242;stroke-width:5;stroke-miterlimit:10" d="M23.029 405.035c-82.178 1.119-149.945-64.827-151.064-147.005-1.119-82.178 64.827-149.945 147.005-151.064 82.178-1.119 149.945 64.827 151.064 147.005 1.12 82.178-64.826 149.945-147.005 151.064z"/><path style="fill:#424242" d="M256 70c49.683 0 96.391 19.347 131.522 54.478S442 206.317 442 256s-19.347 96.391-54.478 131.522S305.683 442 256 442s-96.391-19.347-131.522-54.478S70 305.683 70 256s19.347-96.391 54.478-131.522S206.317 70 256 70m0-14C145.543 56 56 145.543 56 256s89.543 200 200 200 200-89.543 200-200S366.457 56 256 56z"/></symbol><use style="enable-background:new 0 0 512 512" xlink:href="#svg-tennis" y="1845.142" width="512" height="512"/><view id="svg-tennis-coloured" viewBox="0 1845.142 512 512"/></svg>