<svg xmlns="http://www.w3.org/2000/svg" xmlns:xlink="http://www.w3.org/1999/xlink"><symbol style="enable-background:new 0 0 455 455" id="svg-facebook" viewBox="0 0 455 455"><title>facebook</title><path style="fill-rule:evenodd;clip-rule:evenodd" d="M0 0v455h455V0H0zm301.004 125.217H265.44c-7.044 0-14.153 7.28-14.153 12.696v36.264h49.647c-1.999 27.807-6.103 53.235-6.103 53.235h-43.798V385h-65.266V227.395h-31.771v-53.029h31.771V131.01c0-7.928-1.606-61.009 66.872-61.009h48.366v55.216z"/></symbol><use style="enable-background:new 0 0 455 455" xlink:href="#svg-facebook" width="455" height="455"/><view id="svg-facebook-mono" viewBox="0 0 455 455"/><symbol style="enable-background:new 0 0 455 455" id="svg-linked-in" viewBox="0 0 455 455"><title>linked-in</title><path style="fill-rule:evenodd;clip-rule:evenodd" d="M246.4 204.35v-.665c-.136.223-.324.446-.442.665h.442z"/><path style="fill-rule:evenodd;clip-rule:evenodd" d="M0 0v455h455V0H0zm141.522 378.002H74.016V174.906h67.506v203.096zm-33.753-230.816h-.446C84.678 147.186 70 131.585 70 112.085c0-19.928 15.107-35.087 38.211-35.087 23.109 0 37.31 15.159 37.752 35.087 0 19.5-14.643 35.101-38.194 35.101zM385 378.002h-67.524V269.345c0-27.291-9.756-45.92-34.195-45.92-18.664 0-29.755 12.543-34.641 24.693-1.776 4.34-2.24 10.373-2.24 16.459v113.426h-67.537s.905-184.043 0-203.096H246.4v28.779c8.973-13.807 24.986-33.547 60.856-33.547 44.437 0 77.744 29.02 77.744 91.398v116.465z"/></symbol><use style="enable-background:new 0 0 455 455" xlink:href="#svg-linked-in" y="455" width="455" height="455"/><view id="svg-linked-in-mono" viewBox="0 455 455 455"/><symbol style="enable-background:new 0 0 455 455" id="svg-twitter" viewBox="0 0 455 455"><title>twitter</title><path style="fill-rule:evenodd;clip-rule:evenodd" d="M0 0v455h455V0H0zm352.751 163.259c.123 2.773.186 5.561.186 8.36 0 85.403-65.002 183.876-183.873 183.876-36.496 0-70.466-10.697-99.065-29.037 5.056.601 10.199.907 15.417.907 30.278 0 58.143-10.331 80.262-27.668-28.28-.519-52.148-19.204-60.373-44.88a64.403 64.403 0 0 0 12.161 1.163c5.894 0 11.604-.794 17.027-2.268-29.563-5.939-51.841-32.057-51.841-63.368 0-.273 0-.544.006-.814a64.366 64.366 0 0 0 29.271 8.084c-17.342-11.589-28.748-31.371-28.748-53.79 0-11.845 3.187-22.945 8.751-32.492 31.873 39.101 79.493 64.828 133.203 67.526a64.831 64.831 0 0 1-1.677-14.729c0-35.688 28.938-64.623 64.626-64.623 18.589 0 35.385 7.847 47.173 20.406a129.352 129.352 0 0 0 41.038-15.681c-4.824 15.092-15.071 27.754-28.415 35.754 13.074-1.563 25.528-5.038 37.118-10.178-8.662 12.959-19.618 24.342-32.247 33.452z"/></symbol><use style="enable-background:new 0 0 455 455" xlink:href="#svg-twitter" y="910" width="455" height="455"/><view id="svg-twitter-mono" viewBox="0 910 455 455"/><symbol style="enable-background:new 0 0 242.667 242.667" id="svg-youtube" viewBox="0 0 242.667 242.667"><title>youtube</title><path d="m106.955 94.325 39.161 27.008-39.161 27.008V94.325zM242.667 0v242.667H0V0h242.667zM190.25 101.494c0-16.378-13.277-29.655-29.655-29.655H82.072c-16.378 0-29.655 13.277-29.655 29.655v39.679c0 16.378 13.277 29.655 29.655 29.655h78.523c16.378 0 29.655-13.277 29.655-29.655v-39.679z"/></symbol><use style="enable-background:new 0 0 242.667 242.667" xlink:href="#svg-youtube" y="1365" width="242.667" height="242.667"/><view id="svg-youtube-mono" viewBox="0 1365 242.667 242.667"/></svg>